<svg xmlns="http://www.w3.org/2000/svg" width="30" height="30" viewBox="0 0 30 30">
  <g id="tire-svgrepo-com" transform="translate(-0.001)">
    <path id="Path_107" data-name="Path 107" d="M15,0A15,15,0,1,0,30,15,15,15,0,0,0,15,0Zm0,24.561A9.561,9.561,0,1,1,24.562,15,9.561,9.561,0,0,1,15,24.561Z" transform="translate(0)" fill="#202020"/>
    <path id="Path_108" data-name="Path 108" d="M241.145,242.069a.925.925,0,1,0-.925-.924A.924.924,0,0,0,241.145,242.069Z" transform="translate(-226.144 -226.145)" fill="#202020"/>
    <path id="Path_109" data-name="Path 109" d="M150.126,138.95a.606.606,0,0,0,.381.364l3.3,1.072a1.008,1.008,0,0,0,1.32-.959v-3.463a.607.607,0,0,0-.744-.589s.049-.037-.284.067a7.343,7.343,0,0,0-3.8,2.793c-.188.269-.116.192-.116.192A.609.609,0,0,0,150.126,138.95Z" transform="translate(-141.293 -127.428)" fill="#202020"/>
    <path id="Path_110" data-name="Path 110" d="M135.764,242.2a1,1,0,0,0-.647-.647l-3.294-1.07a.6.6,0,0,0-.79.526s-.02-.058-.023.291a7.342,7.342,0,0,0,1.481,4.48c.2.262.146.169.146.169a.605.605,0,0,0,.947-.04l2.037-2.8A1.009,1.009,0,0,0,135.764,242.2Z" transform="translate(-123.333 -226.364)" fill="#202020"/>
    <path id="Path_111" data-name="Path 111" d="M209.166,302.537a1.008,1.008,0,0,0-1.631,0l-2.036,2.8a.606.606,0,0,0,.256.914s-.062,0,.269.113a7.336,7.336,0,0,0,4.717-.025c.31-.107.206-.086.206-.086a.6.6,0,0,0,.254-.913Z" transform="translate(-193.349 -284.419)" fill="#202020"/>
    <path id="Path_112" data-name="Path 112" d="M303.015,240.462l-3.3,1.071a1.007,1.007,0,0,0-.5,1.55l2.035,2.8a.6.6,0,0,0,.948.039s-.018.059.19-.221a7.343,7.343,0,0,0,1.436-4.494c-.006-.327-.019-.222-.019-.222a.6.6,0,0,0-.789-.524Z" transform="translate(-281.501 -226.344)" fill="#202020"/>
    <path id="Path_113" data-name="Path 113" d="M276.428,140.2a1.013,1.013,0,0,0,.9.143l3.293-1.072a.6.6,0,0,0,.33-.889s.051.035-.152-.249a7.339,7.339,0,0,0-3.83-2.754c-.314-.1-.218-.051-.218-.051a.607.607,0,0,0-.742.589v3.466A1.012,1.012,0,0,0,276.428,140.2Z" transform="translate(-259.838 -127.384)" fill="#202020"/>
  </g>
</svg>
