<svg xmlns="http://www.w3.org/2000/svg" width="26.703" height="31.157" viewBox="0 0 26.703 31.157">
  <g id="BHP" transform="translate(-212.875 -253)">
    <path id="Subtraction_3" data-name="Subtraction 3" d="M-14292.317-5957.877h-2.244a1.148,1.148,0,0,1-.714-.251,1.126,1.126,0,0,1-.392-.649l-.337-1.594a.266.266,0,0,0-.051-.1.245.245,0,0,0-.1-.068l-.122-.05-.122-.05a.221.221,0,0,0-.1-.022h-.018a.232.232,0,0,0-.113.04l-1.363.89a1.145,1.145,0,0,1-.623.185c-.041,0-.078,0-.113-.005a1.136,1.136,0,0,1-.686-.327l-1.583-1.587a1.129,1.129,0,0,1-.326-.686,1.106,1.106,0,0,1,.179-.732l.887-1.367a.214.214,0,0,0,.043-.111.26.26,0,0,0-.021-.115l-.054-.122-.05-.122a.244.244,0,0,0-.064-.1.268.268,0,0,0-.1-.05l-1.6-.337a1.123,1.123,0,0,1-.646-.391,1.133,1.133,0,0,1-.255-.714v-2.244a1.134,1.134,0,0,1,.255-.714,1.128,1.128,0,0,1,.646-.395l1.6-.334a.314.314,0,0,0,.1-.05.243.243,0,0,0,.064-.1l.05-.122.054-.122a.28.28,0,0,0,.021-.115.217.217,0,0,0-.043-.111l-.887-1.368a1.122,1.122,0,0,1-.179-.736,1.121,1.121,0,0,1,.326-.682l1.583-1.587a1.136,1.136,0,0,1,.686-.327,1.119,1.119,0,0,1,.114-.006,1.136,1.136,0,0,1,.622.186l1.363.89a.232.232,0,0,0,.111.04h.02a.221.221,0,0,0,.1-.022l.122-.05.122-.05a.251.251,0,0,0,.1-.064.3.3,0,0,0,.051-.108l.337-1.594a1.129,1.129,0,0,1,.392-.65,1.149,1.149,0,0,1,.714-.251h2.244a1.134,1.134,0,0,1,.714.251,1.135,1.135,0,0,1,.395.65l.334,1.594a.3.3,0,0,0,.051.108.257.257,0,0,0,.1.064l.126.05.118.05a.233.233,0,0,0,.1.022h.019a.256.256,0,0,0,.111-.04l1.367-.89a1.136,1.136,0,0,1,.622-.186,1.115,1.115,0,0,1,.113.006,1.139,1.139,0,0,1,.683.327l1.564,1.565h-1.267l-.93-.93a.248.248,0,0,0-.144-.068l-.026,0a.268.268,0,0,0-.131.038l-1.365.894a1.191,1.191,0,0,1-.523.183c-.028,0-.056,0-.084,0a1.144,1.144,0,0,1-.462-.1l-.107-.043-.107-.043a1.153,1.153,0,0,1-.453-.323,1.126,1.126,0,0,1-.24-.5l-.337-1.6a.234.234,0,0,0-.083-.136.239.239,0,0,0-.15-.05h-2.24a.224.224,0,0,0-.15.051.235.235,0,0,0-.087.135l-.333,1.6a1.1,1.1,0,0,1-.241.5,1.168,1.168,0,0,1-.456.323l-.125.05-.086.036a1.145,1.145,0,0,1-.463.1c-.028,0-.056,0-.083,0a1.179,1.179,0,0,1-.524-.183l-1.367-.89a.248.248,0,0,0-.131-.042l-.027,0a.217.217,0,0,0-.14.072l-1.587,1.583a.254.254,0,0,0-.072.144.265.265,0,0,0,.04.158l.891,1.364a1.119,1.119,0,0,1,.183.524,1.131,1.131,0,0,1-.094.549l-.046.108-.043.1a1.136,1.136,0,0,1-.32.452,1.13,1.13,0,0,1-.5.241l-1.594.337a.232.232,0,0,0-.137.083.237.237,0,0,0-.05.15v2.244a.238.238,0,0,0,.05.151.248.248,0,0,0,.137.083l1.594.337a1.13,1.13,0,0,1,.5.241,1.1,1.1,0,0,1,.32.452l.043.107.046.1a1.152,1.152,0,0,1,.094.549,1.117,1.117,0,0,1-.183.524l-.891,1.364a.266.266,0,0,0-.04.158.234.234,0,0,0,.068.144l1.591,1.583a.217.217,0,0,0,.14.072h.026a.241.241,0,0,0,.132-.041l1.367-.89a1.147,1.147,0,0,1,.524-.183c.026,0,.055,0,.085,0a1.2,1.2,0,0,1,.461.1l.107.047.1.043a1.1,1.1,0,0,1,.456.323,1.109,1.109,0,0,1,.241.5l.333,1.594a.221.221,0,0,0,.087.137.225.225,0,0,0,.15.054h2.24a.233.233,0,0,0,.15-.054.235.235,0,0,0,.083-.137l.337-1.594a1.131,1.131,0,0,1,.24-.5,1.113,1.113,0,0,1,.453-.323l.107-.047.107-.043a1.112,1.112,0,0,1,.446-.1.932.932,0,0,1,.1,0,1.1,1.1,0,0,1,.523.183l1.364.89a.273.273,0,0,0,.131.038l.027,0a.239.239,0,0,0,.144-.068l1.587-1.587.014-.014a.212.212,0,0,0,.054-.125.228.228,0,0,0-.035-.158l-.02-.029h.939a1.164,1.164,0,0,1,.006.273,1.141,1.141,0,0,1-.3.653.174.174,0,0,1-.028.032l-1.583,1.583a1.13,1.13,0,0,1-.687.327,1.138,1.138,0,0,1-.115.006,1.136,1.136,0,0,1-.62-.185l-1.367-.891a.262.262,0,0,0-.108-.039h-.021a.226.226,0,0,0-.1.022l-.118.05,0,0-.123.05a.234.234,0,0,0-.1.068.265.265,0,0,0-.051.1l-.334,1.593a1.136,1.136,0,0,1-.395.649A1.13,1.13,0,0,1-14292.317-5957.877Zm-1.12-5.424a4.113,4.113,0,0,1-2.926-1.209,4.113,4.113,0,0,1-1.213-2.926,4.111,4.111,0,0,1,1.213-2.925,4.1,4.1,0,0,1,2.926-1.213,4.109,4.109,0,0,1,2.926,1.213,4.113,4.113,0,0,1,1.209,2.925,4.128,4.128,0,0,1-1.209,2.926A4.126,4.126,0,0,1-14293.437-5963.3Zm0-7.376a3.222,3.222,0,0,0-2.294.948,3.232,3.232,0,0,0-.947,2.293,3.217,3.217,0,0,0,.947,2.29,3.235,3.235,0,0,0,2.294.951,3.216,3.216,0,0,0,2.29-.951,3.206,3.206,0,0,0,.951-2.29,3.209,3.209,0,0,0-.951-2.293A3.216,3.216,0,0,0-14293.437-5970.677Z" transform="translate(14516 6237.429)" fill="#202020" stroke="#202020" stroke-width="0.25"/>
    <g id="noun-power-5630379" transform="translate(207.662 251.001)">
      <path id="Path_1150" data-name="Path 1150" d="M13.581,19.8h7.765a.556.556,0,0,1,.544.673l-2.685,12.54h0a.1.1,0,0,0,.065.126.1.1,0,0,0,.136-.036L31.8,16.273a.577.577,0,0,0-.465-.921H23.572a.556.556,0,0,1-.544-.673l2.685-12.54a.1.1,0,0,0-.065-.126A.134.134,0,0,0,25.593,2a.1.1,0,0,0-.081.049l-12.4,16.834a.577.577,0,0,0,.465.921Z" transform="translate(0 0)" fill="#202020"/>
    </g>
  </g>
</svg>
