<svg xmlns="http://www.w3.org/2000/svg" width="34.155" height="22.1" viewBox="0 0 34.155 22.1">
  <g id="Chassis" transform="translate(-11.652 47.288) rotate(-90)">
    <g id="Group_742" data-name="Group 742" transform="translate(25.188 11.652)">
      <path id="Path_1131" data-name="Path 1131" d="M28.822,11.652h-2.75a.887.887,0,0,0-.884.884v6.407a.887.887,0,0,0,.884.884h2.75a.887.887,0,0,0,.884-.884V12.538a.886.886,0,0,0-.884-.885Z" transform="translate(-25.188 -11.652)" fill="#202020" fill-rule="evenodd"/>
      <path id="Path_1132" data-name="Path 1132" d="M68.3,11.652h-2.75a.887.887,0,0,0-.884.884v6.407a.887.887,0,0,0,.884.884H68.3a.887.887,0,0,0,.884-.884V12.538a.888.888,0,0,0-.884-.885Z" transform="translate(-47.085 -11.652)" fill="#202020" fill-rule="evenodd"/>
      <path id="Path_1133" data-name="Path 1133" d="M48.082,16.693H46.616a.473.473,0,0,0-.471.471v.927l-6.95,0v-.927a.473.473,0,0,0-.471-.471H37.257a.473.473,0,0,0-.471.471v2.743a.473.473,0,0,0,.471.471h1.467a.473.473,0,0,0,.471-.471v-.927h3.03V33.832c-1.032.346-1.814,1.867-1.814,3.681s.781,3.335,1.814,3.681v2.874l-3.03,0v-.927a.473.473,0,0,0-.471-.471H37.257a.473.473,0,0,0-.471.471v2.743a.473.473,0,0,0,.471.471h1.467a.473.473,0,0,0,.471-.471v-.927h6.95v.927a.473.473,0,0,0,.471.471h1.467a.473.473,0,0,0,.471-.471V43.143a.473.473,0,0,0-.471-.471H46.616a.473.473,0,0,0-.471.471v.927h-3.03V41.2c1.032-.344,1.814-1.867,1.814-3.681s-.781-3.335-1.814-3.681l0-14.853h3.03v.927a.473.473,0,0,0,.471.471h1.467a.473.473,0,0,0,.471-.471l0-2.743A.473.473,0,0,0,48.082,16.693Z" transform="translate(-31.62 -14.447)" fill="#202020" fill-rule="evenodd"/>
      <path id="Path_1134" data-name="Path 1134" d="M28.822,69.988h-2.75a.887.887,0,0,0-.884.884v6.407a.887.887,0,0,0,.884.884h2.75a.887.887,0,0,0,.884-.884V70.872A.886.886,0,0,0,28.822,69.988Z" transform="translate(-25.188 -44.008)" fill="#202020" fill-rule="evenodd"/>
      <path id="Path_1135" data-name="Path 1135" d="M68.3,69.988h-2.75a.887.887,0,0,0-.884.884v6.407a.887.887,0,0,0,.884.884H68.3a.887.887,0,0,0,.884-.884V70.872A.887.887,0,0,0,68.3,69.988Z" transform="translate(-47.085 -44.008)" fill="#202020" fill-rule="evenodd"/>
    </g>
  </g>
</svg>
