<svg xmlns="http://www.w3.org/2000/svg" width="31.892" height="32.323" viewBox="0 0 31.892 32.323">
  <path id="sparkles-svgrepo-com" d="M12.957,22.29a.557.557,0,0,0,.586-.517c.621-4.6.776-4.6,5.534-5.516a.583.583,0,0,0,.534-.586.6.6,0,0,0-.534-.586c-4.758-.655-4.93-.81-5.534-5.5a.579.579,0,0,0-1.155.017c-.569,4.62-.81,4.6-5.534,5.482a.608.608,0,0,0-.534.586c0,.345.224.534.6.586,4.689.758,4.9.879,5.465,5.482A.558.558,0,0,0,12.957,22.29ZM24.645,41.373a.888.888,0,0,0,.862-.793C26.731,31.133,28.058,29.7,37.4,28.668a.865.865,0,0,0,.81-.862.877.877,0,0,0-.81-.862c-9.343-1.034-10.671-2.465-11.895-11.912a.872.872,0,0,0-.862-.776.844.844,0,0,0-.845.776c-1.224,9.447-2.569,10.878-11.895,11.912a.879.879,0,0,0-.827.862.867.867,0,0,0,.827.862c9.309,1.224,10.6,2.482,11.895,11.912A.859.859,0,0,0,24.645,41.373Z" transform="translate(-6.32 -9.05)" fill="currentColor"/>
</svg>
