<svg xmlns="http://www.w3.org/2000/svg" width="36.073" height="24.428" viewBox="0 0 36.073 24.428">
  <g id="Engine" transform="translate(-388.963 -254.944)">
    <g id="noun-engine-7074295" transform="translate(388.964 254.944)">
      <path id="Path_1152" data-name="Path 1152" d="M36.749,38.047v2.3a.82.82,0,0,0,.818.818,4.022,4.022,0,0,0,1.5-.418c.286-.144.5-.294.5-.4V30.726c0-.106-.218-.256-.5-.4a4.036,4.036,0,0,0-1.5-.418.82.82,0,0,0-.818.818v2.3a.389.389,0,0,1-.388.388H33.015a.389.389,0,0,1-.388-.388V29.462A1.332,1.332,0,0,0,31.3,28.133H28.292a.389.389,0,0,1-.388-.388V25.6a1.343,1.343,0,0,0-1.329-1.329H14.881A1.335,1.335,0,0,0,13.552,25.6v.859a.389.389,0,0,1-.388.388H10.589A1.332,1.332,0,0,0,9.26,28.174v9.143a1.332,1.332,0,0,0,1.329,1.33h5.989a.389.389,0,0,1,.376.291l.87,2.549a2.566,2.566,0,0,0,.585,1.044,1.639,1.639,0,0,0,1.2.409H31.3a1.332,1.332,0,0,0,1.329-1.329V38.047a.389.389,0,0,1,.388-.388h3.346a.389.389,0,0,1,.388.388Zm-31.61-.489V27.935a.82.82,0,0,0-.818-.818.823.823,0,0,0-.82.818v9.623a.819.819,0,0,0,1.638,0Zm.776-6.121v2.621H8.482V31.436ZM19.2,23.5h2.62v-2.57H19.2ZM15.7,20.15h9.623a.817.817,0,0,0,.818-.818.82.82,0,0,0-.818-.82H15.7a.82.82,0,0,0-.818.818.82.82,0,0,0,.818.82Z" transform="translate(-3.501 -18.512)" fill="#202020"/>
    </g>
    <g id="noun-cogs-7951262" transform="translate(406 268.158)">
      <path id="Path_1154" data-name="Path 1154" d="M7,8.8l.053-.021h0l.052-.022a.546.546,0,0,1,.528.044l.674.439a.122.122,0,0,0,.078.019.118.118,0,0,0,.07-.035l.782-.782.008-.007a.116.116,0,0,0,.028-.063A.12.12,0,0,0,9.256,8.3l-.439-.674A.545.545,0,0,1,8.773,7.1L8.8,7.045h0l.021-.052a.549.549,0,0,1,.406-.343l.787-.166a.115.115,0,0,0,.067-.041.119.119,0,0,0,.025-.075V5.263a.114.114,0,0,0-.092-.115l-.787-.166a.561.561,0,0,1-.247-.119.555.555,0,0,1-.159-.223L8.8,4.587l-.022-.053a.546.546,0,0,1,.044-.528l.439-.674a.122.122,0,0,0,.019-.078.117.117,0,0,0-.034-.07h0L8.458,2.4a.118.118,0,0,0-.07-.035.122.122,0,0,0-.078.019l-.674.439a.545.545,0,0,1-.528.044l-.052-.022L7,2.826A.549.549,0,0,1,6.66,2.42l-.166-.787a.116.116,0,0,0-.041-.067.119.119,0,0,0-.075-.025H5.274a.114.114,0,0,0-.115.092l-.166.787a.549.549,0,0,1-.343.406l-.063.025-.042.018a.545.545,0,0,1-.528-.044l-.674-.439a.122.122,0,0,0-.078-.019.118.118,0,0,0-.07.035l-.782.782a.118.118,0,0,0-.035.07.12.12,0,0,0,.019.078l.439.674a.546.546,0,0,1,.044.528l-.022.053-.021.052a.549.549,0,0,1-.406.343l-.787.166a.115.115,0,0,0-.067.041.119.119,0,0,0-.025.075V6.369a.114.114,0,0,0,.092.115l.787.166a.549.549,0,0,1,.406.343l.021.052.022.053a.546.546,0,0,1-.044.528L2.4,8.3a.122.122,0,0,0-.019.078.117.117,0,0,0,.034.07h0l.782.782a.116.116,0,0,0,.07.035.12.12,0,0,0,.078-.019l.674-.439a.545.545,0,0,1,.528-.044l.052.022.053.021a.549.549,0,0,1,.343.406L5.158,10a.115.115,0,0,0,.041.067.119.119,0,0,0,.075.025H6.379A.114.114,0,0,0,6.495,10l.166-.787a.561.561,0,0,1,.119-.247A.555.555,0,0,1,7,8.806ZM5.826,3.774a2.042,2.042,0,1,1-1.443.6A2.036,2.036,0,0,1,5.826,3.774Zm1.131.91a1.6,1.6,0,1,0,.468,1.131A1.594,1.594,0,0,0,6.957,4.685Zm.268,4.507-.061.024a.115.115,0,0,0-.047.033.12.12,0,0,0-.024.052l-.166.787a.557.557,0,0,1-.547.445H5.273a.557.557,0,0,1-.547-.445L4.56,9.3a.116.116,0,0,0-.024-.052.121.121,0,0,0-.047-.033l-.061-.025-.059-.026a.119.119,0,0,0-.057-.01.124.124,0,0,0-.055.019l-.674.439a.557.557,0,0,1-.7-.073L2.1,8.759h0a.556.556,0,0,1-.073-.7l.439-.674a.113.113,0,0,0,.009-.112l-.026-.06-.024-.061A.115.115,0,0,0,2.393,7.1a.12.12,0,0,0-.052-.024l-.787-.166a.557.557,0,0,1-.445-.547V5.262a.557.557,0,0,1,.445-.547l.787-.166a.116.116,0,0,0,.052-.024.121.121,0,0,0,.033-.047l.024-.061.026-.06a.119.119,0,0,0,.01-.057.125.125,0,0,0-.02-.055l-.439-.674a.557.557,0,0,1,.073-.7l.782-.782a.557.557,0,0,1,.7-.073l.674.439a.116.116,0,0,0,.055.02.119.119,0,0,0,.057-.01l.06-.026.061-.024a.115.115,0,0,0,.047-.033A.12.12,0,0,0,4.56,2.33l.166-.787A.557.557,0,0,1,5.273,1.1H6.379a.557.557,0,0,1,.547.445l.166.787a.116.116,0,0,0,.024.052.121.121,0,0,0,.047.033l.061.024.059.026A.113.113,0,0,0,7.4,2.455l.674-.439a.557.557,0,0,1,.7.073l.782.782h0a.555.555,0,0,1,.073.7l-.439.674a.116.116,0,0,0-.02.055.119.119,0,0,0,.01.057l.026.06.024.061a.118.118,0,0,0,.033.047.12.12,0,0,0,.052.024l.787.166a.557.557,0,0,1,.445.547V6.367a.557.557,0,0,1-.445.547l-.787.166a.119.119,0,0,0-.052.024.124.124,0,0,0-.033.047L9.2,7.212h0l-.025.06a.113.113,0,0,0,.009.112l.439.674a.556.556,0,0,1-.058.685l-.014.016-.782.782a.557.557,0,0,1-.7.073L7.4,9.173a.116.116,0,0,0-.055-.02.119.119,0,0,0-.057.01l-.059.026h0Z" transform="translate(-1.109 -1.098)" fill="#fff" stroke="#fff" stroke-width="0.25"/>
    </g>
  </g>
</svg>
