<svg xmlns="http://www.w3.org/2000/svg" width="36.067" height="28.495" viewBox="0 0 36.067 28.495">
  <g id="Caravan-External-Length" transform="translate(-222.255 -358.145)">
    <g id="noun-caravan-7736754" transform="translate(214.755 334.184)">
      <path id="Path_1189" data-name="Path 1189" d="M14.4,36.313,12.281,38.3a.214.214,0,0,0-.008.3.221.221,0,0,0,.157.068.2.2,0,0,0,.144-.055l2.117-1.982a.214.214,0,0,0,.008-.3.21.21,0,0,0-.3-.013Z" transform="translate(-2.714 -7.077)" fill="#202020"/>
      <path id="Path_1190" data-name="Path 1190" d="M41.177,46.776a.2.2,0,0,0,.144-.055l2.117-1.982a.213.213,0,0,0-.293-.31l-2.117,1.982a.214.214,0,0,0-.008.3A.241.241,0,0,0,41.177,46.776Z" transform="translate(-19.262 -11.749)" fill="#202020"/>
      <path id="Path_1191" data-name="Path 1191" d="M57.98,39.93h6.7v1.358h-6.7Z" transform="translate(-29.059 -9.193)" fill="#202020"/>
      <path id="Path_1192" data-name="Path 1192" d="M29.775,23.961H19.324a2.372,2.372,0,0,0-2.364,2.165H29.78V23.961Z" transform="translate(-5.446)" fill="#202020"/>
      <path id="Path_1193" data-name="Path 1193" d="M82.252,42.323a.214.214,0,0,0,.131-.046l.8-.645a.211.211,0,1,0-.264-.33l-.8.645a.213.213,0,0,0-.033.3.226.226,0,0,0,.166.08Z" transform="translate(-42.91 -9.956)" fill="#202020"/>
      <path id="Path_1194" data-name="Path 1194" d="M81.5,43.845a.214.214,0,0,0,.131-.046l2.274-1.828a.211.211,0,0,0-.264-.33l-2.274,1.828a.213.213,0,0,0-.033.3.221.221,0,0,0,.166.08Z" transform="translate(-42.478 -10.151)" fill="#202020"/>
      <path id="Path_1195" data-name="Path 1195" d="M57.98,52.531h6.7v-8.4h-6.7Zm5.269-5.079a.213.213,0,0,1,.212-.212.216.216,0,0,1,.212.212v.892a.216.216,0,0,1-.212.212.213.213,0,0,1-.212-.212Z" transform="translate(-29.059 -11.61)" fill="#202020"/>
      <path id="Path_1196" data-name="Path 1196" d="M11.048,44.425a4.77,4.77,0,0,1,9.259,0h9.4v-10.4a.213.213,0,0,1,.212-.212h7.121a.209.209,0,0,1,.212.212v10.4h6.632V41.294c0-.068,0-.131,0-.2h0V32.7c0-.093-.008-.191-.017-.288l0-.022a2.334,2.334,0,0,0-.182-.718,2.95,2.95,0,0,0-.857-1.061,2.682,2.682,0,0,0-1.643-.56l-30.441,0a1.133,1.133,0,0,0-1.134,1.134V44.427h.408ZM39.542,32.633a.213.213,0,0,1,.212-.212H42.86a.241.241,0,0,1,.237.242v7.383H39.754a.209.209,0,0,1-.212-.212ZM10.394,37.114,14.048,33.7a.214.214,0,0,0,.008-.3.208.208,0,0,0-.3-.008l-3.365,3.144V32.419h4.4l-.419.395a.216.216,0,0,0-.013.3.221.221,0,0,0,.157.068.218.218,0,0,0,.144-.06l.751-.7H27.118a.213.213,0,0,1,.212.212v2.919l-.756.7a.214.214,0,0,0-.008.3.206.206,0,0,0,.153.068.2.2,0,0,0,.144-.06l.467-.433v3.7a.209.209,0,0,1-.212.212H23.149l3.1-2.9a.211.211,0,0,0,.013-.3.216.216,0,0,0-.3-.013l-3.438,3.216-12.13,0Z" transform="translate(-1.214 -3.504)" fill="#202020"/>
      <path id="Path_1197" data-name="Path 1197" d="M42.886,60.412H35.914a.274.274,0,0,1-.085.017H28.709a.274.274,0,0,1-.085-.017H20.277a0,0,0,0,0,0,0H18.85c.008,0,0,0,0,0h-.433c-.013-.081-.025-.166-.043-.245a4.023,4.023,0,0,0-7.643-.58,1.78,1.78,0,0,0-.085.225,1.934,1.934,0,0,0-.1.351c-.022.081-.03.166-.046.245H8.652l-.469,0a.687.687,0,0,0,0,1.374h2.326c.017.085.025.166.046.245a4.017,4.017,0,0,0,7.817,0c.022-.081.03-.166.046-.245l20.483,0,.683,3.34h1.692v-3.34h1.608a.687.687,0,0,0,.683-.691.679.679,0,0,0-.681-.68ZM14.464,62.657A1.558,1.558,0,0,1,12.906,61.1a1.54,1.54,0,0,1,.31-.933,1.577,1.577,0,0,1,.53-.449,1.557,1.557,0,1,1,.718,2.941Z" transform="translate(0 -19.062)" fill="#202020"/>
      <path id="Path_1198" data-name="Path 1198" d="M23.653,65.573a.721.721,0,1,1-1.442,0,.721.721,0,0,1,1.442,0" transform="translate(-8.468 -23.539)" fill="#202020"/>
    </g>
    <g id="Group_801" data-name="Group 801" transform="translate(223.908 381.245)">
      <line id="Line_109" data-name="Line 109" x2="30.836" transform="translate(0.775 2.697)" fill="none" stroke="#000" stroke-width="1"/>
      <path id="Polygon_3" data-name="Polygon 3" d="M2.7,0l2.7,2.076H0Z" transform="translate(-0.001 5.394) rotate(-90)" fill="#202020"/>
      <path id="Polygon_4" data-name="Polygon 4" d="M2.7,0l2.7,2.076H0Z" transform="translate(32.762 0) rotate(90)" fill="#202020"/>
    </g>
  </g>
</svg>
