<svg xmlns="http://www.w3.org/2000/svg" width="32.538" height="26.12" viewBox="0 0 32.538 26.12">
  <g id="Fuel_Type" data-name="Fuel Type" transform="translate(-1211.283 -236.289)">
    <path id="Path_1183" data-name="Path 1183" d="M24.831,1.631v0c.216-.07.318-.462.226-.9s-.343-.755-.57-.73V0L18.2,1.336a7.535,7.535,0,0,0-2.92,1.093L12.1,4.677a1.04,1.04,0,0,0-1.128.234L9.9,5.724A6.368,6.368,0,0,0,5.363,7.206C3.974,8.734,2.909,10.17,2.909,10.17a.941.941,0,0,0-.092,1.158l.417.88a.9.9,0,0,1,0,.741L.223,20.5c-.648,1.3.324,1.714.324,1.714a16.294,16.294,0,0,0,2.686.463c6.855.972,8.012-2.408,8.012-2.408l1.876-3.9a2.229,2.229,0,0,0,.208-2.049,4.912,4.912,0,0,0,.626-4.863A2.742,2.742,0,0,1,13.92,8.1L14.2,7.4a.711.711,0,0,0,0-.833l-.046-.043,2.38-2.466a4.822,4.822,0,0,1,1.962-1.082l.038-.007,6.275-1.334ZM11.28,16.121,10,19.108c-1.7,2.744-6.565,1.7-6.565,1.7,2.327-5.176,3.2-6.635,3.2-6.635l1.425.209-.625.417a1.818,1.818,0,0,0-.764,1.6l.507,2.883c.2,1.181.5,1.042.5,1.042.347-.07.139-1.146.139-1.146L7.633,16.5c-.086-1.181,2.675-1.7,2.675-1.7A1.385,1.385,0,0,1,11.28,16.121Z" transform="translate(1214.463 236.289) rotate(8)" fill="#202020"/>
    <path id="Path_1184" data-name="Path 1184" d="M1.011,0A10.072,10.072,0,0,0,0,2.9S0,4,1.011,4,2.023,2.9,2.023,2.9A9.983,9.983,0,0,0,1.011,0Z" transform="translate(1239.309 241.779) rotate(-35)" fill="#202020"/>
    <path id="Path_1185" data-name="Path 1185" d="M.868,0A8.639,8.639,0,0,0,0,2.484s0,.943.868.943.868-.943.868-.943A8.563,8.563,0,0,0,.868,0Z" transform="matrix(-0.276, -0.961, 0.961, -0.276, 1240.526, 240.529)" fill="#202020"/>
  </g>
</svg>
