<svg xmlns="http://www.w3.org/2000/svg" width="25.295" height="26.203" viewBox="0 0 25.295 26.203">
  <g id="Gearbox" transform="translate(-4 -2.4)">
    <path id="Path_1182" data-name="Path 1182" d="M29.295,5.538a3.11,3.11,0,1,0-4.074,2.945v6.083h-7.6V8.455a3.11,3.11,0,1,0-1.927,0v6.083H8.074V8.455a3.11,3.11,0,1,0-1.927,0V22.52a3.124,3.124,0,1,0,1.954,0V16.465h7.624v6.083a3.11,3.11,0,1,0,1.927,0V16.465H26.24A.975.975,0,0,0,27.2,15.5V8.455A3.069,3.069,0,0,0,29.295,5.538Z" fill="#202020"/>
  </g>
</svg>
