<svg xmlns="http://www.w3.org/2000/svg" width="23.887" height="24.615" viewBox="0 0 23.887 24.615">
  <g id="Stock_Number" data-name="Stock Number" transform="translate(-14.336 -13.25)">
    <path id="Path_1174" data-name="Path 1174" d="M16.66,13.961l-1.614,1.614H16.66Zm14.6,16.828L29.4,29.719l-.28,2.625Zm4.585-12.445,2.045,1.181.153-.266a.393.393,0,0,1,.043-.076,1.183,1.183,0,0,0-.425-1.563.556.556,0,0,1-.06-.035,1.186,1.186,0,0,0-1.579.451ZM34.487,20.7a.575.575,0,0,0,.035-.061l.82-1.421,2.045,1.18-3.732,6.465a.493.493,0,0,0-.037.063l-1.765,3.056L29.808,28.8ZM17.665,13.251h15.9v7.031l-2.755,4.774H16.721a.5.5,0,0,0,0,1H30.233l-1.541,2.67a.581.581,0,0,0-.031.064H16.721a.5.5,0,1,0,0,1H28.388L28.1,32.533H16.721a.5.5,0,0,0,0,1H28.628a.777.777,0,0,0,.289.039.8.8,0,0,0,.429-.154L32.1,31.414a.807.807,0,0,0,.254-.3.7.7,0,0,0,.039-.1.571.571,0,0,0,.08-.1l1.1-1.9v8.854H14.336V16.581h2.827a.5.5,0,0,0,.5-.5Zm-.944,4.327a.5.5,0,1,0,0,1H31.184a.5.5,0,1,0,0-1Zm0,3.739a.5.5,0,1,0,0,1H31.184a.5.5,0,1,0,0-1Z" transform="translate(0 0)" fill="currentColor" fill-rule="evenodd"/>
  </g>
</svg>
