<svg width="26" height="26" viewBox="0 0 26 26" fill="none" xmlns="http://www.w3.org/2000/svg">
                <path d="M22.454 10.6364V7.09092C22.454 5.78552 21.3958 4.72728 20.0904 4.72728H5.90856C4.60316 4.72728 3.54492 5.78552 3.54492 7.09092V10.6364M22.454 10.6364V21.2727C22.454 22.5782 21.3958 23.6364 20.0904 23.6364H5.90856C4.60316 23.6364 3.54492 22.5782 3.54492 21.2727V10.6364M22.454 10.6364H3.54492M8.27219 2.36365V7.09092M17.7267 2.36365V7.09092" stroke="currentColor" stroke-width="2" stroke-linecap="round"></path>
                <path d="M8.86275 13H6.49911C6.17276 13 5.9082 13.2646 5.9082 13.5909V15.9545C5.9082 16.2809 6.17276 16.5455 6.49911 16.5455H8.86275C9.1891 16.5455 9.45366 16.2809 9.45366 15.9545V13.5909C9.45366 13.2646 9.1891 13 8.86275 13Z" fill="currentColor"></path>
                <path d="M14.5761 13H11.4246C10.9895 13 10.6367 13.2646 10.6367 13.5909V15.9545C10.6367 16.2809 10.9895 16.5455 11.4246 16.5455H14.5761C15.0112 16.5455 15.364 16.2809 15.364 15.9545V13.5909C15.364 13.2646 15.0112 13 14.5761 13Z" fill="currentColor"></path>
                <path d="M19.4995 13H17.1358C16.8095 13 16.5449 13.2646 16.5449 13.5909V15.9545C16.5449 16.2809 16.8095 16.5455 17.1358 16.5455H19.4995C19.8258 16.5455 20.0904 16.2809 20.0904 15.9545V13.5909C20.0904 13.2646 19.8258 13 19.4995 13Z" fill="currentColor"></path>
              </svg>