<svg xmlns="http://www.w3.org/2000/svg" width="27.4" height="27.4" viewBox="0 0 27.4 27.4">
  <g id="Power_Steering" data-name="Power Steering" transform="translate(-1366.632 -251.126)">
    <g id="noun-steer-7068575" transform="translate(1364.633 249.126)">
      <path id="Path_1187" data-name="Path 1187" d="M15.7,2A13.7,13.7,0,0,1,29.016,12.471a7.534,7.534,0,0,0-2.3-1.49,11.985,11.985,0,0,0-22.067.071,10.359,10.359,0,0,0-2.292,1.525A13.7,13.7,0,0,1,15.7,2Zm0,7.706a36.326,36.326,0,0,1,7.974.883c2.572.623,4.778,1.651,5.583,3.148a13.213,13.213,0,0,1,.027,3.684c-3.422.021-6.351.468-8.456,2.185-2.131,1.737-3.344,4.739-3.407,9.677a12.836,12.836,0,0,1-3.443,0c-.064-4.938-1.277-7.94-3.407-9.677-2.1-1.717-5.034-2.164-8.456-2.185A13.9,13.9,0,0,1,2,15.7a15.18,15.18,0,0,1,.143-1.918c.906-1.526,3.136-2.567,5.691-3.193A41.654,41.654,0,0,1,15.7,9.706ZM2.2,17.992c.6.006,1.187.017,1.748.054a12,12,0,0,0,9.383,9.41c.046.55.07,1.134.08,1.748A13.693,13.693,0,0,1,2.2,17.992Zm27.008,0A13.693,13.693,0,0,1,17.992,29.2c.01-.614.035-1.2.08-1.748a12,12,0,0,0,9.383-9.41c.561-.037,1.147-.048,1.748-.054Z" fill="#202020"/>
    </g>
    <g id="Path_1188" data-name="Path 1188" transform="translate(1363.604 255.692)" fill="#fff">
      <path d="M 15.49182987213135 14.76999664306641 C 15.41109657287598 14.76999664306641 15.33186435699463 14.75190925598145 15.25957584381104 14.71729469299316 C 15.14981555938721 14.66702079772949 15.05839347839355 14.58028793334961 15.00314044952393 14.47207641601562 C 14.94449996948242 14.35737419128418 14.92929267883301 14.22369003295898 14.95961570739746 14.09893417358398 L 15.94218063354492 9.510776519775391 L 13.23120975494385 9.510776519775391 C 12.95508003234863 9.510836601257324 12.7061595916748 9.35767650604248 12.58170986175537 9.111045837402344 C 12.45722961425781 8.864315986633301 12.48196029663086 8.573065757751465 12.64620971679688 8.350906372070312 L 17.52093887329102 1.730619192123413 C 17.61609649658203 1.59343409538269 17.76912117004395 1.507875442504883 17.93749046325684 1.499596238136292 L 17.95469093322754 1.498756170272827 L 17.97191047668457 1.499096274375916 C 18.03976249694824 1.500432372093201 18.10786247253418 1.514628529548645 18.17082214355469 1.540390491485596 C 18.29160118103027 1.588385820388794 18.39278602600098 1.679789543151855 18.45224952697754 1.795986175537109 C 18.51107025146484 1.9112788438797 18.52624702453613 2.044886827468872 18.4959659576416 2.169498205184937 L 17.51334953308105 6.757886409759521 L 20.2243595123291 6.757886409759521 C 20.50085067749023 6.757886409759521 20.74974060058594 6.911126136779785 20.87412071228027 7.157806396484375 C 20.9986400604248 7.404726028442383 20.97372055053711 7.696176052093506 20.80905914306641 7.918406009674072 L 15.93576240539551 14.53599739074707 C 15.86288166046143 14.64213466644287 15.7531099319458 14.71985721588135 15.6276798248291 14.75256633758545 C 15.58366012573242 14.7640962600708 15.53779983520508 14.76999664306641 15.49182987213135 14.76999664306641 Z" stroke="none"/>
      <path d="M 15.49185466766357 14.26999664306641 C 15.49507808685303 14.26999664306641 15.49831485748291 14.26958751678467 15.50148963928223 14.26875591278076 C 15.51165008544922 14.26610660552979 15.52027034759521 14.25937652587891 15.52530956268311 14.25015640258789 L 20.40732002258301 7.620736122131348 C 20.4584903717041 7.551676273345947 20.46636962890625 7.45966625213623 20.42766952514648 7.382925987243652 C 20.38896942138672 7.306175708770752 20.30975151062012 7.257259845733643 20.2243595123291 7.257886409759521 L 17.1660099029541 7.257886409759521 C 17.09980964660645 7.257906436920166 17.03714942932129 7.227996349334717 16.99554061889648 7.176506042480469 C 16.95392036437988 7.125026226043701 16.93782043457031 7.057486057281494 16.95171928405762 6.992756366729736 L 18.00937080383301 2.053996324539185 C 18.01273918151855 2.044036149978638 18.01193046569824 2.033136129379272 18.00715065002441 2.023766279220581 C 18.00235939025879 2.014406204223633 17.99399948120117 2.007366180419922 17.98394966125488 2.004256248474121 C 17.96523666381836 1.995188593864441 17.94068145751953 2.000348567962646 17.93004989624023 2.018286228179932 L 13.04825973510742 8.648146629333496 C 12.9972095489502 8.717196464538574 12.98941040039062 8.809116363525391 13.02809047698975 8.885786056518555 C 13.06678009033203 8.962455749511719 13.14533996582031 9.010796546936035 13.23120975494385 9.010776519775391 L 16.28956985473633 9.010776519775391 C 16.35573959350586 9.010776519775391 16.41835021972656 9.040656089782715 16.4599494934082 9.092096328735352 C 16.50153923034668 9.143516540527344 16.51767921447754 9.210986137390137 16.50386047363281 9.275675773620605 L 15.44620990753174 14.21444606781006 C 15.44283962249756 14.22440624237061 15.44363975524902 14.23530578613281 15.44843006134033 14.24467658996582 C 15.45320987701416 14.25403594970703 15.46158027648926 14.26107597351074 15.47161960601807 14.26418590545654 C 15.47774505615234 14.26801490783691 15.48476505279541 14.26999664306641 15.49185466766357 14.26999664306641 M 15.49184989929199 15.26999664306641 C 15.33407974243164 15.26999664306641 15.17927265167236 15.23419857025146 15.03835010528564 15.16572093963623 C 14.83291721343994 15.06793975830078 14.66203498840332 14.90351581573486 14.55784034729004 14.69948577880859 C 14.44647026062012 14.48161792755127 14.41637325286865 14.22824668884277 14.47143363952637 13.99078845977783 L 15.32376289367676 10.01077651977539 L 13.23120975494385 10.01077651977539 C 12.76533031463623 10.01088619232178 12.3453197479248 9.752446174621582 12.13531970977783 9.336306571960449 C 11.92529010772705 8.919976234436035 11.96700954437256 8.428525924682617 12.24415969848633 8.053656578063965 L 17.11405372619629 1.439951539039612 C 17.29765892028809 1.178747653961182 17.5906982421875 1.016044020652771 17.91292953491211 1.000206232070923 L 17.94733047485352 0.9985162019729614 L 17.98176956176758 0.9991862177848816 C 18.11005783081055 1.00171947479248 18.23881912231445 1.028387308120728 18.35798263549805 1.076765894889832 C 18.58942031860352 1.169623494148254 18.78324699401855 1.34522807598114 18.8973503112793 1.568206191062927 C 19.00905990600586 1.787168145179749 19.03910636901855 2.040396451950073 18.98417091369629 2.277539014816284 L 18.13176727294922 6.257886409759521 L 20.2243595123291 6.257886409759521 C 20.69070053100586 6.257886409759521 21.11066055297852 6.516436100006104 21.3205509185791 6.932636260986328 C 21.53068923950195 7.349326133728027 21.4886302947998 7.841106414794922 21.21080017089844 8.216075897216797 L 16.34153175354004 14.82819557189941 C 16.20095443725586 15.02803611755371 15.99203681945801 15.17425918579102 15.75387001037598 15.2363862991333 C 15.66847991943359 15.25867652893066 15.58026027679443 15.26999664306641 15.49184989929199 15.26999664306641 Z" stroke="none" fill="#202020"/>
    </g>
  </g>
</svg>
